<?xml version="1.0" encoding="utf-8" ?>
<svg baseProfile="full" height="160mm" version="1.1" viewBox="0,0,321,160" width="321mm" xmlns="http://www.w3.org/2000/svg" xmlns:ev="http://www.w3.org/2001/xml-events" xmlns:xlink="http://www.w3.org/1999/xlink"><defs /><rect fill="white" height="160" width="321" x="0" y="0" /><rect fill="none" height="150" rx="3" ry="3" stroke="black" stroke-width="0.5" width="100" x="5" y="5" /><path d="M 118 5 L 202 5 A 8 8 1 0 0 210 13 L 210 147 A 8 8 1 0 0 202 155 L 118 155 A 8 8 1 0 0 110 147 L 110 13 A 8 8 1 0 0 118 5 Z" fill="none" stroke="black" stroke-width="0.5" /><path d="M 223 5 L 307 5 A 8 8 1 0 0 315 13 L 315 147 A 8 8 1 0 0 307 155 L 223 155 A 8 8 1 0 0 215 147 L 215 13 A 8 8 1 0 0 223 5 Z" fill="none" stroke="black" stroke-width="0.5" /><circle cx="9" cy="9" fill="none" r="1.5" stroke="black" stroke-width="0.5" /><circle cx="101" cy="9" fill="none" r="1.5" stroke="black" stroke-width="0.5" /><circle cx="9" cy="151" fill="none" r="1.5" stroke="black" stroke-width="0.5" /><circle cx="101" cy="151" fill="none" r="1.5" stroke="black" stroke-width="0.5" /><circle cx="114" cy="9" fill="none" r="1.5" stroke="green" stroke-width="0.5" /><circle cx="206" cy="9" fill="none" r="1.5" stroke="green" stroke-width="0.5" /><circle cx="114" cy="151" fill="none" r="1.5" stroke="green" stroke-width="0.5" /><circle cx="206" cy="151" fill="none" r="1.5" stroke="green" stroke-width="0.5" /><circle cx="219" cy="9" fill="none" r="1.5" stroke="green" stroke-width="0.5" /><circle cx="311" cy="9" fill="none" r="1.5" stroke="green" stroke-width="0.5" /><circle cx="219" cy="151" fill="none" r="1.5" stroke="green" stroke-width="0.5" /><circle cx="311" cy="151" fill="none" r="1.5" stroke="green" stroke-width="0.5" /><circle cx="23.75" cy="15" fill="none" r="2.5" stroke="black" stroke-width="0.5" /><circle cx="23.75" cy="27" fill="none" r="3.5" stroke="black" stroke-width="0.5" /><circle cx="42.5" cy="15" fill="none" r="2.5" stroke="black" stroke-width="0.5" /><circle cx="42.5" cy="27" fill="none" r="3.5" stroke="black" stroke-width="0.5" /><circle cx="61.25" cy="21" fill="none" r="3.5" stroke="black" stroke-width="0.5" /><circle cx="16.3" cy="54.5" fill="none" r="3.5" stroke="black" stroke-width="0.5" /><circle cx="31.3" cy="54.5" fill="none" r="3.5" stroke="black" stroke-width="0.5" /><circle cx="46.3" cy="54.5" fill="none" r="3.5" stroke="black" stroke-width="0.5" /><circle cx="61.3" cy="54.5" fill="none" r="3.5" stroke="black" stroke-width="0.5" /><circle cx="76.3" cy="54.5" fill="none" r="3.5" stroke="black" stroke-width="0.5" /><circle cx="93" cy="68" fill="none" r="3.5" stroke="black" stroke-width="0.5" /><circle cx="78" cy="93" fill="none" r="3.5" stroke="black" stroke-width="0.5" /><circle cx="93" cy="93" fill="none" r="3.5" stroke="black" stroke-width="0.5" /><circle cx="78" cy="118" fill="none" r="3.5" stroke="black" stroke-width="0.5" /><circle cx="93" cy="118" fill="none" r="3.5" stroke="black" stroke-width="0.5" /><circle cx="78" cy="143" fill="none" r="3.5" stroke="black" stroke-width="0.5" /><circle cx="93" cy="143" fill="none" r="3.5" stroke="black" stroke-width="0.5" /><rect fill="none" height="71.5" stroke="black" stroke-width="0.5" width="48" x="13" y="75.5" /><circle cx="128.75" cy="15" fill="none" r="2.5" stroke="black" stroke-width="0.5" /><circle cx="128.75" cy="27" fill="none" r="3.5" stroke="black" stroke-width="0.5" /><circle cx="147.5" cy="15" fill="none" r="2.5" stroke="black" stroke-width="0.5" /><circle cx="147.5" cy="27" fill="none" r="3.5" stroke="black" stroke-width="0.5" /><circle cx="166.25" cy="21" fill="none" r="3.5" stroke="black" stroke-width="0.5" /><circle cx="121.3" cy="54.5" fill="none" r="3.5" stroke="black" stroke-width="0.5" /><circle cx="136.3" cy="54.5" fill="none" r="3.5" stroke="black" stroke-width="0.5" /><circle cx="151.3" cy="54.5" fill="none" r="3.5" stroke="black" stroke-width="0.5" /><circle cx="166.3" cy="54.5" fill="none" r="3.5" stroke="black" stroke-width="0.5" /><circle cx="181.3" cy="54.5" fill="none" r="3.5" stroke="black" stroke-width="0.5" /><circle cx="198" cy="68" fill="none" r="3.5" stroke="black" stroke-width="0.5" /><circle cx="183" cy="93" fill="none" r="3.5" stroke="black" stroke-width="0.5" /><circle cx="198" cy="93" fill="none" r="3.5" stroke="black" stroke-width="0.5" /><circle cx="183" cy="118" fill="none" r="3.5" stroke="black" stroke-width="0.5" /><circle cx="198" cy="118" fill="none" r="3.5" stroke="black" stroke-width="0.5" /><circle cx="183" cy="143" fill="none" r="3.5" stroke="black" stroke-width="0.5" /><circle cx="198" cy="143" fill="none" r="3.5" stroke="black" stroke-width="0.5" /><rect fill="none" height="71.5" stroke="black" stroke-width="0.5" width="48" x="118" y="75.5" /><circle cx="233.75" cy="15" fill="none" r="2.5" stroke="black" stroke-width="0.5" /><circle cx="233.75" cy="27" fill="none" r="3.5" stroke="black" stroke-width="0.5" /><circle cx="252.5" cy="15" fill="none" r="2.5" stroke="black" stroke-width="0.5" /><circle cx="252.5" cy="27" fill="none" r="3.5" stroke="black" stroke-width="0.5" /><circle cx="271.25" cy="21" fill="none" r="3.5" stroke="black" stroke-width="0.5" /><circle cx="226.3" cy="54.5" fill="none" r="3.5" stroke="black" stroke-width="0.5" /><circle cx="241.3" cy="54.5" fill="none" r="3.5" stroke="black" stroke-width="0.5" /><circle cx="256.3" cy="54.5" fill="none" r="3.5" stroke="black" stroke-width="0.5" /><circle cx="271.3" cy="54.5" fill="none" r="3.5" stroke="black" stroke-width="0.5" /><circle cx="286.3" cy="54.5" fill="none" r="3.5" stroke="black" stroke-width="0.5" /><circle cx="303" cy="68" fill="none" r="3.5" stroke="black" stroke-width="0.5" /><circle cx="288" cy="93" fill="none" r="3.5" stroke="black" stroke-width="0.5" /><circle cx="303" cy="93" fill="none" r="3.5" stroke="black" stroke-width="0.5" /><circle cx="288" cy="118" fill="none" r="3.5" stroke="black" stroke-width="0.5" /><circle cx="303" cy="118" fill="none" r="3.5" stroke="black" stroke-width="0.5" /><circle cx="288" cy="143" fill="none" r="3.5" stroke="black" stroke-width="0.5" /><circle cx="303" cy="143" fill="none" r="3.5" stroke="black" stroke-width="0.5" /><rect fill="none" height="71.5" stroke="black" stroke-width="0.5" width="48" x="223" y="75.5" /><text dominant-baseline="middle" fill="none" font-family="Arial" font-size="3pt" stroke="red" stroke-width="0.5" text-anchor="middle" x="233.75" y="35">RCS</text><circle cx="23.75" cy="35" fill="none" r="1.5" stroke="black" stroke-width="0.5" /><circle cx="128.75" cy="35" fill="none" r="1.5" stroke="black" stroke-width="0.5" /><text dominant-baseline="middle" fill="none" font-family="Arial" font-size="3pt" stroke="red" stroke-width="0.5" text-anchor="middle" x="252.5" y="35">SAS</text><circle cx="42.5" cy="35" fill="none" r="1.5" stroke="black" stroke-width="0.5" /><circle cx="147.5" cy="35" fill="none" r="1.5" stroke="black" stroke-width="0.5" /><text dominant-baseline="middle" fill="none" font-family="Arial" font-size="3pt" stroke="red" stroke-width="0.5" text-anchor="middle" x="271.25" y="13">RAW</text><circle cx="61.25" cy="13" fill="none" r="1.5" stroke="black" stroke-width="0.5" /><circle cx="166.25" cy="13" fill="none" r="1.5" stroke="black" stroke-width="0.5" /><text dominant-baseline="middle" fill="none" font-family="Arial" font-size="3pt" stroke="red" stroke-width="0.5" text-anchor="middle" x="271.25" y="29">DAMP</text><circle cx="61.25" cy="29" fill="none" r="1.5" stroke="black" stroke-width="0.5" /><circle cx="166.25" cy="29" fill="none" r="1.5" stroke="black" stroke-width="0.5" /><text dominant-baseline="middle" fill="none" font-family="Arial" font-size="3pt" stroke="red" stroke-width="0.5" text-anchor="middle" x="285" y="18">FLIGHT</text><circle cx="75" cy="18" fill="none" r="1.5" stroke="black" stroke-width="0.5" /><circle cx="180" cy="18" fill="none" r="1.5" stroke="black" stroke-width="0.5" /><text dominant-baseline="middle" fill="none" font-family="Arial" font-size="3pt" stroke="red" stroke-width="0.5" text-anchor="middle" x="285" y="24">MODE</text><circle cx="75" cy="24" fill="none" r="1.5" stroke="black" stroke-width="0.5" /><circle cx="180" cy="24" fill="none" r="1.5" stroke="black" stroke-width="0.5" /><rect fill="none" height="34" rx="3" ry="3" stroke="red" stroke-width="0.5" width="70" x="225.75" y="7" /><text dominant-baseline="middle" fill="none" font-family="Arial" font-size="3pt" stroke="red" stroke-width="0.5" text-anchor="middle" x="226.3" y="62.5">6</text><text dominant-baseline="middle" fill="none" font-family="Arial" font-size="3pt" stroke="red" stroke-width="0.5" text-anchor="middle" x="226.3" y="46.5">1</text><text dominant-baseline="middle" fill="none" font-family="Arial" font-size="3pt" stroke="red" stroke-width="0.5" text-anchor="middle" x="241.3" y="62.5">RECT</text><text dominant-baseline="middle" fill="none" font-family="Arial" font-size="3pt" stroke="red" stroke-width="0.5" text-anchor="middle" x="241.3" y="46.5">EXND</text><text dominant-baseline="middle" fill="none" font-family="Arial" font-size="3pt" stroke="red" stroke-width="0.5" text-anchor="middle" x="256.3" y="62.5">8</text><text dominant-baseline="middle" fill="none" font-family="Arial" font-size="3pt" stroke="red" stroke-width="0.5" text-anchor="middle" x="256.3" y="46.5">3</text><text dominant-baseline="middle" fill="none" font-family="Arial" font-size="3pt" stroke="red" stroke-width="0.5" text-anchor="middle" x="271.3" y="62.5">9</text><text dominant-baseline="middle" fill="none" font-family="Arial" font-size="3pt" stroke="red" stroke-width="0.5" text-anchor="middle" x="271.3" y="46.5">4</text><text dominant-baseline="middle" fill="none" font-family="Arial" font-size="3pt" stroke="red" stroke-width="0.5" text-anchor="middle" x="286.3" y="62.5">10</text><text dominant-baseline="middle" fill="none" font-family="Arial" font-size="3pt" stroke="red" stroke-width="0.5" text-anchor="middle" x="286.3" y="46.5">5</text><circle cx="16.3" cy="62.5" fill="none" r="1.5" stroke="black" stroke-width="0.5" /><circle cx="16.3" cy="46.5" fill="none" r="1.5" stroke="black" stroke-width="0.5" /><circle cx="31.3" cy="62.5" fill="none" r="1.5" stroke="black" stroke-width="0.5" /><circle cx="31.3" cy="46.5" fill="none" r="1.5" stroke="black" stroke-width="0.5" /><circle cx="46.3" cy="62.5" fill="none" r="1.5" stroke="black" stroke-width="0.5" /><circle cx="46.3" cy="46.5" fill="none" r="1.5" stroke="black" stroke-width="0.5" /><circle cx="61.3" cy="62.5" fill="none" r="1.5" stroke="black" stroke-width="0.5" /><circle cx="61.3" cy="46.5" fill="none" r="1.5" stroke="black" stroke-width="0.5" /><circle cx="76.3" cy="62.5" fill="none" r="1.5" stroke="black" stroke-width="0.5" /><circle cx="76.3" cy="46.5" fill="none" r="1.5" stroke="black" stroke-width="0.5" /><circle cx="121.3" cy="62.5" fill="none" r="1.5" stroke="black" stroke-width="0.5" /><circle cx="121.3" cy="46.5" fill="none" r="1.5" stroke="black" stroke-width="0.5" /><circle cx="136.3" cy="62.5" fill="none" r="1.5" stroke="black" stroke-width="0.5" /><circle cx="136.3" cy="46.5" fill="none" r="1.5" stroke="black" stroke-width="0.5" /><circle cx="151.3" cy="62.5" fill="none" r="1.5" stroke="black" stroke-width="0.5" /><circle cx="151.3" cy="46.5" fill="none" r="1.5" stroke="black" stroke-width="0.5" /><circle cx="166.3" cy="62.5" fill="none" r="1.5" stroke="black" stroke-width="0.5" /><circle cx="166.3" cy="46.5" fill="none" r="1.5" stroke="black" stroke-width="0.5" /><circle cx="181.3" cy="62.5" fill="none" r="1.5" stroke="black" stroke-width="0.5" /><circle cx="181.3" cy="46.5" fill="none" r="1.5" stroke="black" stroke-width="0.5" /><text dominant-baseline="middle" fill="none" font-family="Arial" font-size="3pt" stroke="red" stroke-width="0.5" text-anchor="middle" x="303" y="76">Grid 1</text><text dominant-baseline="middle" fill="none" font-family="Arial" font-size="3pt" stroke="red" stroke-width="0.5" text-anchor="middle" x="288" y="101">Grid 2</text><text dominant-baseline="middle" fill="none" font-family="Arial" font-size="3pt" stroke="red" stroke-width="0.5" text-anchor="middle" x="303" y="101">Grid 3</text><text dominant-baseline="middle" fill="none" font-family="Arial" font-size="3pt" stroke="red" stroke-width="0.5" text-anchor="middle" x="288" y="126">Grid 4</text><text dominant-baseline="middle" fill="none" font-family="Arial" font-size="3pt" stroke="red" stroke-width="0.5" text-anchor="middle" x="303" y="126">Grid 5</text><text dominant-baseline="middle" fill="none" font-family="Arial" font-size="3pt" stroke="red" stroke-width="0.5" text-anchor="middle" x="288" y="151">Grid 6</text><text dominant-baseline="middle" fill="none" font-family="Arial" font-size="3pt" stroke="red" stroke-width="0.5" text-anchor="middle" x="303" y="151">Grid 7</text><circle cx="93" cy="76" fill="none" r="1.5" stroke="black" stroke-width="0.5" /><circle cx="78" cy="101" fill="none" r="1.5" stroke="black" stroke-width="0.5" /><circle cx="93" cy="101" fill="none" r="1.5" stroke="black" stroke-width="0.5" /><circle cx="78" cy="126" fill="none" r="1.5" stroke="black" stroke-width="0.5" /><circle cx="93" cy="126" fill="none" r="1.5" stroke="black" stroke-width="0.5" /><circle cx="78" cy="151" fill="none" r="1.5" stroke="black" stroke-width="0.5" /><circle cx="93" cy="151" fill="none" r="1.5" stroke="black" stroke-width="0.5" /><circle cx="198" cy="76" fill="none" r="1.5" stroke="black" stroke-width="0.5" /><circle cx="183" cy="101" fill="none" r="1.5" stroke="black" stroke-width="0.5" /><circle cx="198" cy="101" fill="none" r="1.5" stroke="black" stroke-width="0.5" /><circle cx="183" cy="126" fill="none" r="1.5" stroke="black" stroke-width="0.5" /><circle cx="198" cy="126" fill="none" r="1.5" stroke="black" stroke-width="0.5" /><circle cx="183" cy="151" fill="none" r="1.5" stroke="black" stroke-width="0.5" /><circle cx="198" cy="151" fill="none" r="1.5" stroke="black" stroke-width="0.5" /></svg>